<?xml version="1.0" encoding="utf-8"?>
<!-- Generator: Adobe Illustrator 22.0.0, SVG Export Plug-In . SVG Version: 6.00 Build 0)  -->
<svg version="1.1" id="Capa_1" xmlns="http://www.w3.org/2000/svg" xmlns:xlink="http://www.w3.org/1999/xlink" x="0px" y="0px"
	 viewBox="0 0 363 460" style="enable-background:new 0 0 363 460;" xml:space="preserve">
<style type="text/css">
	.st0{clip-path:url(#SVGID_2_);}
	.st1{fill:#FFFFFF;}
	.st2{fill:#013EF2;}
	.st3{fill:none;stroke:#013EF2;stroke-width:2;}
	.st4{font-family:'Calibri';}
	.st5{font-size:40px;}
	.st6{fill:none;}
</style>
<g>
	<defs>
		<rect id="SVGID_1_" width="363" height="460"/>
	</defs>
	<clipPath id="SVGID_2_">
		<use xlink:href="#SVGID_1_"  style="overflow:visible;"/>
	</clipPath>
	<g class="st0">
		<rect class="st1" width="363" height="460"/>
		<path class="st2" d="M176,370.4c-1.4-0.2-5.9-0.9-10-1.5c-24.2-3.4-40.8-12.3-50.1-26.8c-5.5-8.6-6-13.7-5.7-65.1l0.3-46.5h13h13
			l0.5,50l0.5,50l2.7,5.6c7.9,16.2,36.8,25.3,72.5,22.7c16.7-1.2,27.7-4.9,37-12.5c5-4.1,10.2-12.2,11-17c0.5-3.2,0.5-3.3-2.9-3.3
			c-4,0-8.9,1.4-13.2,3.7c-2.7,1.5-5.9,2-26.4,4.3c-6.9,0.7-11.5,1.9-17.2,4.4c-10.7,4.7-17.4,6.6-23.7,6.6c-9.7,0-7.9-5,3-8.6
			c10-3.3,17.7-8.3,17.7-11.4c0-3.6-2-4-19.8-4c-18.6,0-30.8-1.4-31.6-3.7c-0.8-1.9,2.9-5.3,5.8-5.3c4,0,27.9-2,30.4-2.5
			c1.2-0.3,2.2-0.9,2.2-1.4c0-1.1-7.5-1.8-25.5-2.7c-9.9-0.5-14.8-1.1-16.7-2.2c-3.7-2.1-4.1-3.6-1.6-5.9c1.8-1.6,4-1.8,24.3-1.8
			c12.3,0,22.6-0.3,23-0.7c2.7-2.7-4.8-4.7-20.9-5.8c-17.6-1.2-22.6-3.5-16.9-8c2.5-1.9,3.9-2,35.9-2H220l1.6-2.5
			c2.6-4,0.5-9-6.1-14.5c-4.5-3.8-5.6-5.4-6.9-10.1c-2-6.8-2-10-0.2-12.4c1.3-1.8,1.7-1.5,7.9,4.6c10.9,10.7,15.1,14.5,16.7,15.1
			c0.9,0.3,2.2,1.8,3,3.3c1.8,3.5,23.6,25,25.2,25c1,0,1.4-6.5,1.8-28.5l0.5-28.5H276h12.5v49v49l-2.8,8.2
			c-2.4,6.8-3.8,9.2-8.3,13.8c-5.8,5.9-14.5,10.8-25.4,14.3c-14.5,4.8-19.4,5.4-47,5.7C190.4,370.7,177.4,370.7,176,370.4z
			 M210.4,319.4c2.3-0.9,2-5.1-0.4-6.4c-2.7-1.5-6,0.4-6,3.4c0,1.2,0.3,2.6,0.7,2.9C205.5,320.2,208.3,320.2,210.4,319.4z
			 M223.4,319.4c2.2-0.8,2-3.7-0.4-5.9c-1.8-1.6-2.3-1.7-4.5-0.5C212.8,316.1,217.2,321.8,223.4,319.4z M210.8,307.8
			c2-2,1.4-5.8-1-6.7c-4.6-1.7-8.3,2.5-5.3,5.9C206.5,309.3,209,309.6,210.8,307.8z M223.4,307.4c2.3-2.2,2-4.1-0.9-6
			c-2.4-1.6-2.7-1.6-4.5,0.1c-2.3,2-2.6,4.5-0.8,6.3C218.9,309.5,221.6,309.3,223.4,307.4z M210.8,295.8c2.2-2.2,1.4-5.7-1.5-6.4
			c-4.8-1.2-8,2.8-4.8,6C206.4,297.3,209.1,297.5,210.8,295.8z M223.4,295.4c3.7-3.6-0.1-8.2-5.1-6.3c-4.2,1.5-2.2,7.8,2.4,7.9
			C221.3,297,222.6,296.3,223.4,295.4z"/>
		<line class="st3" x1="181.2" y1="109" x2="137.9" y2="223.4"/>
		<path class="st3" d="M162,265l30.9-163.4L186,255.5 M216.3,244.1l-7.5-141.9L236,262.5 M218.8,108.5L261.5,224"/>
		<path class="st2" d="M144.5,54L180,78l-13.5,42.5l33.5-24l37.5,24L221,78l36.5-24H215l-15-41l-14,41H144.5z"/>
	</g>
</g>
<g>
	<g>
		<path class="st2" d="M182,118.2l1.2,0.4l-2.3,7.5l-1.2-0.4L182,118.2z M180.5,124.6l4.4,1.4l-0.4,1.2l-4.4-1.4L180.5,124.6z
			 M181.5,121.5l3.8,1.2l-0.4,1.2l-3.8-1.2L181.5,121.5z M182.5,118.3l4.4,1.4l-0.4,1.2l-4.4-1.4L182.5,118.3z"/>
		<path class="st2" d="M178.4,128.6l1.2,0.4l-2.3,7.5l-1.2-0.4L178.4,128.6z M177.2,135.1l1.7,0.5c0.5,0.2,0.9,0.2,1.3,0
			c0.4-0.2,0.6-0.5,0.8-0.9l0.7-2.2c0.1-0.5,0.1-0.9-0.1-1.2c-0.2-0.3-0.6-0.6-1.1-0.7l-1.7-0.5l0.4-1.2l1.7,0.5
			c0.6,0.2,1.1,0.5,1.5,0.8c0.4,0.3,0.6,0.7,0.7,1.2c0.1,0.5,0.1,1-0.1,1.6l-0.7,2.1c-0.2,0.6-0.4,1-0.8,1.3
			c-0.3,0.3-0.8,0.5-1.3,0.6c-0.5,0.1-1.1,0-1.7-0.2l-1.7-0.5L177.2,135.1z"/>
		<path class="st2" d="M174.1,146.7c-0.3-0.3-0.5-0.8-0.6-1.2c-0.1-0.5,0-1,0.2-1.6l1.5-4.8l1.2,0.4l-1.5,4.8
			c-0.1,0.5-0.1,0.9,0,1.2c0.2,0.3,0.5,0.6,0.9,0.7c0.5,0.1,0.9,0.1,1.2-0.1c0.3-0.2,0.6-0.5,0.7-1l1.5-4.8l1.2,0.4l-1.5,4.8
			c-0.2,0.6-0.4,1.1-0.8,1.4c-0.3,0.3-0.7,0.6-1.2,0.7c-0.5,0.1-1,0.1-1.5-0.1C174.9,147.3,174.4,147,174.1,146.7z"/>
		<path class="st2" d="M171.5,157.7c0,0-0.2-0.2-0.5-0.5c-0.3-0.3-0.5-0.8-0.6-1.2c-0.1-0.5,0-1,0.1-1.6l0.6-2
			c0.2-0.6,0.4-1,0.8-1.4c0.3-0.4,0.7-0.6,1.2-0.7c0.5-0.1,1-0.1,1.5,0.1c0.4,0.1,0.8,0.4,1.1,0.7c0.3,0.3,0.5,0.7,0.7,1.1
			c0.1,0.4,0.2,0.9,0.1,1.4l-1.3-0.4c0-0.3,0-0.5-0.1-0.7c-0.1-0.2-0.2-0.4-0.3-0.6c-0.2-0.2-0.3-0.3-0.5-0.3
			c-0.3-0.1-0.5-0.1-0.8,0c-0.2,0.1-0.5,0.2-0.6,0.4s-0.3,0.5-0.4,0.8l-0.6,2c-0.1,0.3-0.1,0.6-0.1,0.9c0,0.3,0.1,0.5,0.3,0.7
			c0.2,0.2,0.4,0.3,0.7,0.4c0.2,0.1,0.4,0.1,0.6,0c0.2,0,0.4-0.1,0.6-0.3c0.2-0.1,0.4-0.3,0.5-0.6l1.3,0.4c-0.2,0.5-0.5,0.8-0.9,1.1
			c-0.4,0.3-0.7,0.5-1.2,0.5c-0.4,0.1-0.9,0.1-1.3-0.1C171.8,157.8,171.5,157.7,171.5,157.7z"/>
		<path class="st2" d="M170.8,160.8l0.9,0.3l0.5,8.3l-1.3-0.4l-0.2-6.2l-3.6,5l-1.3-0.4L170.8,160.8z M167.8,165.2l3.9,1.2l-0.4,1.2
			l-3.9-1.2L167.8,165.2z"/>
		<path class="st2" d="M165,178.7c0,0-0.2-0.2-0.5-0.5c-0.3-0.3-0.5-0.8-0.6-1.2c-0.1-0.5,0-1,0.1-1.6l0.6-2c0.2-0.6,0.4-1,0.8-1.4
			c0.3-0.4,0.7-0.6,1.2-0.7c0.5-0.1,1-0.1,1.5,0.1c0.4,0.1,0.8,0.4,1.1,0.7c0.3,0.3,0.5,0.7,0.7,1.1c0.1,0.4,0.2,0.9,0.1,1.4
			l-1.3-0.4c0-0.3,0-0.5-0.1-0.7c-0.1-0.2-0.2-0.4-0.3-0.6c-0.2-0.2-0.3-0.3-0.5-0.3c-0.3-0.1-0.5-0.1-0.8,0
			c-0.2,0.1-0.5,0.2-0.6,0.4c-0.2,0.2-0.3,0.5-0.4,0.8l-0.6,2c-0.1,0.3-0.1,0.6-0.1,0.9c0,0.3,0.1,0.5,0.3,0.7
			c0.2,0.2,0.4,0.3,0.7,0.4c0.2,0.1,0.4,0.1,0.6,0c0.2,0,0.4-0.1,0.6-0.3c0.2-0.1,0.4-0.3,0.5-0.6l1.3,0.4c-0.2,0.5-0.5,0.8-0.9,1.1
			c-0.4,0.3-0.7,0.5-1.2,0.5c-0.4,0.1-0.9,0-1.3-0.1C165.3,178.8,165,178.7,165,178.7z"/>
		<path class="st2" d="M163.1,189.6l-1.3-0.4l2.3-7.5l1.3,0.4L163.1,189.6z"/>
		<path class="st2" d="M157.9,199.2c-0.3-0.4-0.5-0.8-0.6-1.3c-0.1-0.5-0.1-1,0.1-1.5l0.7-2.1c0.2-0.5,0.4-1,0.8-1.3
			c0.4-0.3,0.8-0.6,1.2-0.7c0.5-0.1,1-0.1,1.5,0.1c0.5,0.2,1,0.4,1.3,0.8c0.3,0.4,0.5,0.8,0.6,1.3c0.1,0.5,0.1,1-0.1,1.5l-0.7,2.1
			c-0.2,0.5-0.4,1-0.8,1.3c-0.4,0.3-0.8,0.6-1.2,0.7s-1,0.1-1.5-0.1C158.7,199.8,158.3,199.6,157.9,199.2z M160.4,198.8
			c0.3-0.1,0.5-0.2,0.7-0.4c0.2-0.2,0.3-0.4,0.4-0.7l0.7-2.2c0.1-0.3,0.1-0.6,0.1-0.8c0-0.3-0.2-0.5-0.3-0.7
			c-0.2-0.2-0.4-0.3-0.7-0.4c-0.3-0.1-0.5-0.1-0.8,0c-0.3,0.1-0.5,0.2-0.7,0.4c-0.2,0.2-0.3,0.4-0.4,0.7l-0.7,2.2
			c-0.1,0.3-0.1,0.6-0.1,0.8c0,0.3,0.2,0.5,0.3,0.7c0.2,0.2,0.4,0.3,0.7,0.4C159.9,198.9,160.1,198.9,160.4,198.8z M161.4,191.1
			l1.8-0.8l0.5,1.1l-1.9,0.7L161.4,191.1z"/>
		<path class="st2" d="M155.5,202.1l1.3,0.4l1.4,6.7l-0.2,0.1l1.8-5.9l1.2,0.4l-2.3,7.5l-1.3-0.4l-1.5-6.6l0.2-0.1l-1.8,5.8
			l-1.2-0.4L155.5,202.1z"/>
	</g>
</g>
<g>
	<g>
		<path class="st2" d="M198.3,116.6h1.3v7.8h-1.3V116.6z M198.9,120h2.7c0.2,0,0.3,0,0.5-0.1c0.1-0.1,0.2-0.2,0.3-0.4
			s0.1-0.3,0.1-0.6c0-0.2,0-0.4-0.1-0.6c-0.1-0.2-0.2-0.3-0.3-0.4c-0.1-0.1-0.3-0.1-0.5-0.1h-2.7v-1.2h2.7c0.4,0,0.8,0.1,1.2,0.3
			c0.3,0.2,0.6,0.5,0.8,0.8s0.3,0.7,0.3,1.2c0,0.5-0.1,0.9-0.3,1.2s-0.4,0.6-0.8,0.8c-0.3,0.2-0.7,0.3-1.2,0.3h-2.7V120z
			 M200.7,120.9l1.3-0.2l2.1,3.7h-1.5L200.7,120.9z"/>
		<path class="st2" d="M198.6,127.6h1.3v7.8h-1.3V127.6z M199.2,127.6h4.6v1.2h-4.6V127.6z M199.2,130.9h4v1.2h-4V130.9z
			 M199.2,134.2h4.6v1.2h-4.6V134.2z"/>
		<path class="st2" d="M198.2,138.6h1.3v7.8h-1.3V138.6z M198.9,141.9h4.4v1.2h-4.4V141.9z M202.5,138.6h1.3v7.8h-1.3V138.6z"/>
		<path class="st2" d="M200.5,149.6h0.9l2.9,7.8H203l-2-5.8l-2,5.8h-1.4L200.5,149.6z M199,154.7h4.1v1.2H199V154.7z"/>
		<path class="st2" d="M198.4,160.6h1.3v7.8h-1.3V160.6z M199,167.2h2.3c0.4,0,0.8-0.1,1-0.3c0.2-0.2,0.3-0.5,0.3-0.8v0
			c0-0.2,0-0.4-0.1-0.6c-0.1-0.2-0.2-0.3-0.4-0.4c-0.2-0.1-0.4-0.1-0.7-0.1H199v-1.2h2.4c0.4,0,0.6-0.1,0.8-0.3s0.3-0.4,0.3-0.7
			c0-0.3-0.1-0.6-0.3-0.7c-0.2-0.2-0.5-0.3-0.9-0.3H199v-1.2h2.5c0.5,0,0.9,0.1,1.3,0.3s0.6,0.4,0.8,0.7c0.2,0.3,0.3,0.7,0.3,1.1
			c0,0.3-0.1,0.5-0.2,0.8c-0.1,0.2-0.3,0.4-0.5,0.6c-0.2,0.2-0.5,0.3-0.8,0.3c0.3,0,0.6,0.2,0.8,0.3s0.4,0.4,0.5,0.7
			c0.1,0.3,0.2,0.6,0.2,0.9v0c0,0.4-0.1,0.8-0.3,1.1s-0.5,0.6-0.8,0.7c-0.4,0.2-0.8,0.3-1.3,0.3H199V167.2z"/>
		<path class="st2" d="M201.7,179.4h-1.3v-7.8h1.3V179.4z"/>
		<path class="st2" d="M198.8,182.6h1.3v7.8h-1.3V182.6z M199.4,189.2h4.5v1.2h-4.5V189.2z"/>
		<path class="st2" d="M201.7,201.4h-1.3v-7.8h1.3V201.4z"/>
		<path class="st2" d="M198.2,204.6h5.6v1.2h-5.6V204.6z M200.4,205.2h1.3v7.2h-1.3V205.2z"/>
		<path class="st2" d="M200.5,215.6h0.9l2.9,7.8H203l-2-5.8l-2,5.8h-1.4L200.5,215.6z M199,220.7h4.1v1.2H199V220.7z"/>
		<path class="st2" d="M200.3,234.5c0,0-0.2-0.1-0.6-0.4c-0.4-0.2-0.7-0.6-1-1c-0.2-0.4-0.3-1-0.3-1.6v-2.1c0-0.6,0.1-1.1,0.3-1.6
			c0.2-0.4,0.5-0.8,1-1c0.4-0.2,0.9-0.4,1.5-0.4c0.5,0,0.9,0.1,1.3,0.3c0.4,0.2,0.7,0.5,1,0.9c0.3,0.4,0.4,0.8,0.5,1.3h-1.3
			c-0.1-0.3-0.2-0.5-0.3-0.7c-0.1-0.2-0.3-0.3-0.5-0.4c-0.2-0.1-0.4-0.2-0.6-0.2c-0.3,0-0.6,0.1-0.8,0.2c-0.2,0.1-0.4,0.3-0.5,0.6
			c-0.1,0.2-0.2,0.5-0.2,0.9v2.1c0,0.3,0.1,0.6,0.2,0.9c0.1,0.2,0.3,0.4,0.5,0.6c0.2,0.1,0.5,0.2,0.8,0.2c0.2,0,0.4,0,0.6-0.1
			c0.2-0.1,0.4-0.2,0.5-0.4c0.1-0.2,0.2-0.4,0.3-0.7h1.3c-0.1,0.5-0.3,1-0.5,1.3c-0.3,0.4-0.6,0.7-1,0.9c-0.4,0.2-0.8,0.3-1.3,0.3
			C200.6,234.5,200.3,234.5,200.3,234.5z"/>
		<path class="st2" d="M201.7,245.4h-1.3v-7.8h1.3V245.4z"/>
		<path class="st2" d="M199.5,256.1c-0.4-0.2-0.8-0.6-1-1c-0.2-0.4-0.3-0.9-0.3-1.5v-2.2c0-0.6,0.1-1.1,0.3-1.5c0.2-0.4,0.6-0.8,1-1
			c0.4-0.2,0.9-0.4,1.5-0.4s1,0.1,1.5,0.4c0.4,0.2,0.8,0.6,1,1c0.2,0.4,0.3,0.9,0.3,1.5v2.2c0,0.6-0.1,1.1-0.3,1.5
			c-0.2,0.4-0.6,0.8-1,1c-0.4,0.2-0.9,0.4-1.5,0.4S200,256.4,199.5,256.1z M201.8,255c0.2-0.1,0.4-0.3,0.5-0.6
			c0.1-0.2,0.2-0.5,0.2-0.8v-2.3c0-0.3-0.1-0.6-0.2-0.8c-0.1-0.2-0.3-0.4-0.5-0.6c-0.2-0.1-0.5-0.2-0.8-0.2s-0.6,0.1-0.8,0.2
			c-0.2,0.1-0.4,0.3-0.5,0.6c-0.1,0.2-0.2,0.5-0.2,0.8v2.3c0,0.3,0.1,0.6,0.2,0.8c0.1,0.2,0.3,0.4,0.5,0.6c0.2,0.1,0.5,0.2,0.8,0.2
			S201.6,255.1,201.8,255z M200.4,247.3l1.5-1.3l0.8,0.9l-1.6,1.2L200.4,247.3z"/>
		<path class="st2" d="M198.1,259.6h1.4l3.4,6l-0.1,0.1v-6.1h1.2v7.8h-1.4l-3.4-5.9l0.1-0.1v6.1h-1.2V259.6z"/>
	</g>
</g>
<g>
	<g>
		<path class="st2" d="M219.7,125.7l-1.4,0.4l-2.3-8.2l1.4-0.4L219.7,125.7z"/>
		<path class="st2" d="M216.9,130.2l1.5-0.4l5.3,5.3l-0.1,0.2l-1.8-6.5l1.3-0.4l2.3,8.2l-1.5,0.4l-5.3-5.2l0.1-0.2l1.8,6.4l-1.3,0.4
			L216.9,130.2z"/>
		<path class="st2" d="M224.9,149.3c0,0-0.3-0.1-0.8-0.2c-0.5-0.1-0.9-0.4-1.3-0.8s-0.6-0.9-0.8-1.5l-0.6-2.2
			c-0.2-0.6-0.2-1.2-0.1-1.7c0.1-0.5,0.3-1,0.7-1.3c0.4-0.4,0.8-0.6,1.4-0.8c0.5-0.1,1-0.2,1.4-0.1c0.5,0.1,0.9,0.3,1.3,0.6
			s0.7,0.7,0.9,1.3l-1.4,0.4c-0.1-0.2-0.3-0.4-0.5-0.6c-0.2-0.2-0.4-0.3-0.7-0.3s-0.5,0-0.7,0c-0.3,0.1-0.6,0.2-0.7,0.4
			c-0.2,0.2-0.3,0.5-0.4,0.8c0,0.3,0,0.6,0.1,1l0.6,2.2c0.1,0.4,0.2,0.6,0.4,0.9c0.2,0.2,0.4,0.4,0.7,0.4c0.3,0.1,0.6,0.1,0.9,0
			c0.2-0.1,0.4-0.2,0.6-0.3c0.2-0.2,0.3-0.4,0.4-0.6c0.1-0.2,0.1-0.5,0.1-0.8l1.4-0.4c0.1,0.6,0,1.1-0.1,1.6
			c-0.2,0.5-0.4,0.9-0.7,1.2c-0.3,0.3-0.8,0.6-1.2,0.7C225.2,149.2,224.9,149.3,224.9,149.3z"/>
		<path class="st2" d="M224.2,153l1.3-0.4l2.3,8.2l-1.3,0.4L224.2,153z M226.8,159.8l4.7-1.4l0.4,1.3l-4.7,1.4L226.8,159.8z"/>
		<path class="st2" d="M230.5,172.3c-0.5-0.1-0.9-0.4-1.3-0.8c-0.4-0.4-0.6-0.9-0.8-1.6l-1.5-5.2l1.3-0.4l1.5,5.3
			c0.2,0.5,0.4,0.9,0.8,1.1c0.4,0.2,0.8,0.3,1.3,0.1c0.5-0.1,0.9-0.4,1.1-0.8c0.2-0.4,0.2-0.8,0.1-1.4l-1.5-5.3l1.3-0.4l1.5,5.2
			c0.2,0.6,0.2,1.2,0.1,1.7c-0.1,0.5-0.3,1-0.7,1.3c-0.4,0.4-0.9,0.6-1.5,0.8C231.6,172.4,231,172.4,230.5,172.3z"/>
		<path class="st2" d="M234.8,183.9c0,0-0.2,0-0.6,0c-0.4,0-0.8,0-1.1-0.1s-0.7-0.2-1-0.3l0.4-1.3c0.4,0.2,0.8,0.3,1.2,0.3
			s0.9,0,1.3-0.1c0.5-0.2,0.9-0.4,1.2-0.7s0.3-0.6,0.2-1l0,0c-0.1-0.3-0.2-0.4-0.4-0.5c-0.2-0.1-0.4-0.2-0.6-0.2s-0.5,0-0.9,0
			c0,0,0,0,0,0c0,0,0,0,0,0l-0.1,0c-0.6,0.1-1.1,0.1-1.4,0.1c-0.4,0-0.8-0.2-1.1-0.4c-0.3-0.2-0.6-0.7-0.8-1.3l0,0
			c-0.1-0.5-0.2-1,0-1.4c0.1-0.4,0.4-0.8,0.8-1.1c0.4-0.3,0.9-0.6,1.5-0.7c0.3-0.1,0.6-0.1,0.9-0.2c0.3,0,0.6,0,0.9,0
			c0.3,0,0.6,0.1,1,0.2l-0.3,1.3c-0.4-0.1-0.7-0.2-1.1-0.2c-0.4,0-0.7,0-1,0.1c-0.5,0.1-0.9,0.4-1.1,0.6s-0.3,0.6-0.2,0.9l0,0
			c0.1,0.3,0.2,0.4,0.4,0.6s0.4,0.2,0.6,0.2c0.2,0,0.6,0,1,0c0,0,0,0,0,0c0,0,0,0,0,0c0,0,0,0,0.1,0c0,0,0,0,0.1,0c0.5,0,1,0,1.4,0
			c0.4,0,0.7,0.2,1,0.4c0.3,0.3,0.6,0.6,0.7,1.2l0,0c0.1,0.5,0.2,1,0,1.4c-0.1,0.4-0.4,0.8-0.8,1.1c-0.4,0.3-0.9,0.6-1.6,0.8
			C235,183.9,234.8,183.9,234.8,183.9z"/>
		<path class="st2" d="M239.4,195l-1.4,0.4l-2.3-8.2l1.4-0.4L239.4,195z"/>
		<path class="st2" d="M240.4,206.9c-0.5-0.1-1-0.4-1.3-0.8c-0.4-0.4-0.6-0.9-0.8-1.5l-0.7-2.3c-0.2-0.6-0.2-1.2-0.1-1.7
			c0.1-0.5,0.4-1,0.7-1.4c0.4-0.4,0.8-0.6,1.4-0.8c0.6-0.2,1.1-0.2,1.6-0.1s1,0.4,1.3,0.8s0.6,0.9,0.8,1.5l0.7,2.3
			c0.2,0.6,0.2,1.2,0.1,1.7c-0.1,0.5-0.4,1-0.7,1.4c-0.4,0.4-0.8,0.6-1.4,0.8C241.5,207,240.9,207,240.4,206.9z M238.7,197.4
			l1.2-1.8l1.1,0.7l-1.3,1.7L238.7,197.4z M242.4,205c0.2-0.2,0.3-0.4,0.4-0.7c0.1-0.3,0-0.6-0.1-0.9l-0.7-2.4
			c-0.1-0.3-0.2-0.6-0.4-0.8s-0.4-0.4-0.7-0.4s-0.6-0.1-0.9,0c-0.3,0.1-0.6,0.2-0.8,0.4s-0.3,0.4-0.4,0.7c-0.1,0.3,0,0.6,0.1,0.9
			l0.7,2.4c0.1,0.3,0.2,0.6,0.4,0.8c0.2,0.2,0.4,0.4,0.7,0.4c0.3,0.1,0.6,0.1,0.9,0C242,205.4,242.2,205.2,242.4,205z"/>
		<path class="st2" d="M239.9,210.9l1.5-0.4l5.3,5.3l-0.1,0.2l-1.8-6.5l1.3-0.4l2.3,8.2l-1.5,0.4l-5.3-5.2l0.1-0.2l1.8,6.4l-1.3,0.4
			L239.9,210.9z"/>
	</g>
</g>
<text transform="matrix(1 0 0 1 135 424)" class="st2 st4 st5">ACACIG</text>
<path id="SVGID_x5F_3_x5F_" class="st6" d="M97.7,303c0,0-11.9,64.7,65.9,81.8c77.9,17.2,117.9-24.6,117.9-24.6s28.8-27,18.2-57.3"
	/>
<text><textPath  xlink:href="#SVGID_x5F_3_x5F_" startOffset="6.1523%">
<tspan  class="st2 st4" style="font-size:10.8736px;">      ASOCIACIÓN DE CIEGOS Y AMIGOS DE LOS CIEGOS DEL GUAYAS</tspan></textPath>
</text>
</svg>
