<svg width="363" height="460" viewBox="0 0 363 460" fill="none" xmlns="http://www.w3.org/2000/svg">
<g clip-path="url(#clip0)">
<path d="M363 0H0V460H363V0Z" fill="white"/>
<path d="M176 370.4C174.6 370.2 170.1 369.5 166 368.9C141.8 365.5 125.2 356.6 115.9 342.1C110.4 333.5 109.9 328.4 110.2 277L110.5 230.5H123.5H136.5L137 280.5L137.5 330.5L140.2 336.1C148.1 352.3 177 361.4 212.7 358.8C229.4 357.6 240.4 353.9 249.7 346.3C254.7 342.2 259.9 334.1 260.7 329.3C261.2 326.1 261.2 326 257.8 326C253.8 326 248.9 327.4 244.6 329.7C241.9 331.2 238.7 331.7 218.2 334C211.3 334.7 206.7 335.9 201 338.4C190.3 343.1 183.6 345 177.3 345C167.6 345 169.4 340 180.3 336.4C190.3 333.1 198 328.1 198 325C198 321.4 196 321 178.2 321C159.6 321 147.4 319.6 146.6 317.3C145.8 315.4 149.5 312 152.4 312C156.4 312 180.3 310 182.8 309.5C184 309.2 185 308.6 185 308.1C185 307 177.5 306.3 159.5 305.4C149.6 304.9 144.7 304.3 142.8 303.2C139.1 301.1 138.7 299.6 141.2 297.3C143 295.7 145.2 295.5 165.5 295.5C177.8 295.5 188.1 295.2 188.5 294.8C191.2 292.1 183.7 290.1 167.6 289C150 287.8 145 285.5 150.7 281C153.2 279.1 154.6 279 186.6 279H220L221.6 276.5C224.2 272.5 222.1 267.5 215.5 262C211 258.2 209.9 256.6 208.6 251.9C206.6 245.1 206.6 241.9 208.4 239.5C209.7 237.7 210.1 238 216.3 244.1C227.2 254.8 231.4 258.6 233 259.2C233.9 259.5 235.2 261 236 262.5C237.8 266 259.6 287.5 261.2 287.5C262.2 287.5 262.6 281 263 259L263.5 230.5H276H288.5V279.5V328.5L285.7 336.7C283.3 343.5 281.9 345.9 277.4 350.5C271.6 356.4 262.9 361.3 252 364.8C237.5 369.6 232.6 370.2 205 370.5C190.4 370.7 177.4 370.7 176 370.4ZM210.4 319.4C212.7 318.5 212.4 314.3 210 313C207.3 311.5 204 313.4 204 316.4C204 317.6 204.3 319 204.7 319.3C205.5 320.2 208.3 320.2 210.4 319.4ZM223.4 319.4C225.6 318.6 225.4 315.7 223 313.5C221.2 311.9 220.7 311.8 218.5 313C212.8 316.1 217.2 321.8 223.4 319.4ZM210.8 307.8C212.8 305.8 212.2 302 209.8 301.1C205.2 299.4 201.5 303.6 204.5 307C206.5 309.3 209 309.6 210.8 307.8ZM223.4 307.4C225.7 305.2 225.4 303.3 222.5 301.4C220.1 299.8 219.8 299.8 218 301.5C215.7 303.5 215.4 306 217.2 307.8C218.9 309.5 221.6 309.3 223.4 307.4ZM210.8 295.8C213 293.6 212.2 290.1 209.3 289.4C204.5 288.2 201.3 292.2 204.5 295.4C206.4 297.3 209.1 297.5 210.8 295.8ZM223.4 295.4C227.1 291.8 223.3 287.2 218.3 289.1C214.1 290.6 216.1 296.9 220.7 297C221.3 297 222.6 296.3 223.4 295.4Z" fill="#013EF2"/>
<path d="M181.2 109L137.9 223.4" stroke="#013EF2" stroke-width="2"/>
<path d="M162 265L192.9 101.6L186 255.5M218.8 108.5L261.5 224M216.3 244.1L208.8 102.2L236 262.5L216.3 244.1Z" stroke="#013EF2" stroke-width="2"/>
<path d="M144.5 54L180 78L166.5 120.5L200 96.5L237.5 120.5L221 78L257.5 54H215L200 13L186 54H144.5Z" fill="#013EF2"/>
<path d="M182 118.2L183.2 118.6L180.9 126.1L179.7 125.7L182 118.2ZM180.5 124.6L184.9 126L184.5 127.2L180.1 125.8L180.5 124.6ZM181.5 121.5L185.3 122.7L184.9 123.9L181.1 122.7L181.5 121.5ZM182.5 118.3L186.9 119.7L186.5 120.9L182.1 119.5L182.5 118.3Z" fill="#013EF2"/>
<path d="M178.4 128.6L179.6 129L177.3 136.5L176.1 136.1L178.4 128.6ZM177.2 135.1L178.9 135.6C179.4 135.8 179.8 135.8 180.2 135.6C180.6 135.4 180.8 135.1 181 134.7L181.7 132.5C181.8 132 181.8 131.6 181.6 131.3C181.4 131 181 130.7 180.5 130.6L178.8 130.1L179.2 128.9L180.9 129.4C181.5 129.6 182 129.9 182.4 130.2C182.8 130.5 183 130.9 183.1 131.4C183.2 131.9 183.2 132.4 183 133L182.3 135.1C182.1 135.7 181.9 136.1 181.5 136.4C181.2 136.7 180.7 136.9 180.2 137C179.7 137.1 179.1 137 178.5 136.8L176.8 136.3L177.2 135.1Z" fill="#013EF2"/>
<path d="M174.1 146.7C173.8 146.4 173.6 145.9 173.5 145.5C173.4 145 173.5 144.5 173.7 143.9L175.2 139.1L176.4 139.5L174.9 144.3C174.8 144.8 174.8 145.2 174.9 145.5C175.1 145.8 175.4 146.1 175.8 146.2C176.3 146.3 176.7 146.3 177 146.1C177.3 145.9 177.6 145.6 177.7 145.1L179.2 140.3L180.4 140.7L178.9 145.5C178.7 146.1 178.5 146.6 178.1 146.9C177.8 147.2 177.4 147.5 176.9 147.6C176.4 147.7 175.9 147.7 175.4 147.5C174.9 147.3 174.4 147 174.1 146.7Z" fill="#013EF2"/>
<path d="M171.5 157.7C171.5 157.7 171.3 157.5 171 157.2C170.7 156.9 170.5 156.4 170.4 156C170.3 155.5 170.4 155 170.5 154.4L171.1 152.4C171.3 151.8 171.5 151.4 171.9 151C172.2 150.6 172.6 150.4 173.1 150.3C173.6 150.2 174.1 150.2 174.6 150.4C175 150.5 175.4 150.8 175.7 151.1C176 151.4 176.2 151.8 176.4 152.2C176.5 152.6 176.6 153.1 176.5 153.6L175.2 153.2C175.2 152.9 175.2 152.7 175.1 152.5C175 152.3 174.9 152.1 174.8 151.9C174.6 151.7 174.5 151.6 174.3 151.6C174 151.5 173.8 151.5 173.5 151.6C173.3 151.7 173 151.8 172.9 152C172.8 152.2 172.6 152.5 172.5 152.8L171.9 154.8C171.8 155.1 171.8 155.4 171.8 155.7C171.8 156 171.9 156.2 172.1 156.4C172.3 156.6 172.5 156.7 172.8 156.8C173 156.9 173.2 156.9 173.4 156.8C173.6 156.8 173.8 156.7 174 156.5C174.2 156.4 174.4 156.2 174.5 155.9L175.8 156.3C175.6 156.8 175.3 157.1 174.9 157.4C174.5 157.7 174.2 157.9 173.7 157.9C173.3 158 172.8 158 172.4 157.8C171.8 157.8 171.5 157.7 171.5 157.7Z" fill="#013EF2"/>
<path d="M170.8 160.8L171.7 161.1L172.2 169.4L170.9 169L170.7 162.8L167.1 167.8L165.8 167.4L170.8 160.8ZM167.8 165.2L171.7 166.4L171.3 167.6L167.4 166.4L167.8 165.2Z" fill="#013EF2"/>
<path d="M165 178.7C165 178.7 164.8 178.5 164.5 178.2C164.2 177.9 164 177.4 163.9 177C163.8 176.5 163.9 176 164 175.4L164.6 173.4C164.8 172.8 165 172.4 165.4 172C165.7 171.6 166.1 171.4 166.6 171.3C167.1 171.2 167.6 171.2 168.1 171.4C168.5 171.5 168.9 171.8 169.2 172.1C169.5 172.4 169.7 172.8 169.9 173.2C170 173.6 170.1 174.1 170 174.6L168.7 174.2C168.7 173.9 168.7 173.7 168.6 173.5C168.5 173.3 168.4 173.1 168.3 172.9C168.1 172.7 168 172.6 167.8 172.6C167.5 172.5 167.3 172.5 167 172.6C166.8 172.7 166.5 172.8 166.4 173C166.2 173.2 166.1 173.5 166 173.8L165.4 175.8C165.3 176.1 165.3 176.4 165.3 176.7C165.3 177 165.4 177.2 165.6 177.4C165.8 177.6 166 177.7 166.3 177.8C166.5 177.9 166.7 177.9 166.9 177.8C167.1 177.8 167.3 177.7 167.5 177.5C167.7 177.4 167.9 177.2 168 176.9L169.3 177.3C169.1 177.8 168.8 178.1 168.4 178.4C168 178.7 167.7 178.9 167.2 178.9C166.8 179 166.3 178.9 165.9 178.8C165.3 178.8 165 178.7 165 178.7Z" fill="#013EF2"/>
<path d="M163.1 189.6L161.8 189.2L164.1 181.7L165.4 182.1L163.1 189.6Z" fill="#013EF2"/>
<path d="M157.9 199.2C157.6 198.8 157.4 198.4 157.3 197.9C157.2 197.4 157.2 196.9 157.4 196.4L158.1 194.3C158.3 193.8 158.5 193.3 158.9 193C159.3 192.7 159.7 192.4 160.1 192.3C160.6 192.2 161.1 192.2 161.6 192.4C162.1 192.6 162.6 192.8 162.9 193.2C163.2 193.6 163.4 194 163.5 194.5C163.6 195 163.6 195.5 163.4 196L162.7 198.1C162.5 198.6 162.3 199.1 161.9 199.4C161.5 199.7 161.1 200 160.7 200.1C160.3 200.2 159.7 200.2 159.2 200C158.7 199.8 158.3 199.6 157.9 199.2ZM160.4 198.8C160.7 198.7 160.9 198.6 161.1 198.4C161.3 198.2 161.4 198 161.5 197.7L162.2 195.5C162.3 195.2 162.3 194.9 162.3 194.7C162.3 194.4 162.1 194.2 162 194C161.8 193.8 161.6 193.7 161.3 193.6C161 193.5 160.8 193.5 160.5 193.6C160.2 193.7 160 193.8 159.8 194C159.6 194.2 159.5 194.4 159.4 194.7L158.7 196.9C158.6 197.2 158.6 197.5 158.6 197.7C158.6 198 158.8 198.2 158.9 198.4C159.1 198.6 159.3 198.7 159.6 198.8C159.9 198.9 160.1 198.9 160.4 198.8ZM161.4 191.1L163.2 190.3L163.7 191.4L161.8 192.1L161.4 191.1Z" fill="#013EF2"/>
<path d="M155.5 202.1L156.8 202.5L158.2 209.2L158 209.3L159.8 203.4L161 203.8L158.7 211.3L157.4 210.9L155.9 204.3L156.1 204.2L154.3 210L153.1 209.6L155.5 202.1Z" fill="#013EF2"/>
<path d="M198.3 116.6H199.6V124.4H198.3V116.6ZM198.9 120H201.6C201.8 120 201.9 120 202.1 119.9C202.2 119.8 202.3 119.7 202.4 119.5C202.5 119.3 202.5 119.2 202.5 118.9C202.5 118.7 202.5 118.5 202.4 118.3C202.3 118.1 202.2 118 202.1 117.9C202 117.8 201.8 117.8 201.6 117.8H198.9V116.6H201.6C202 116.6 202.4 116.7 202.8 116.9C203.1 117.1 203.4 117.4 203.6 117.7C203.8 118 203.9 118.4 203.9 118.9C203.9 119.4 203.8 119.8 203.6 120.1C203.4 120.4 203.2 120.7 202.8 120.9C202.5 121.1 202.1 121.2 201.6 121.2H198.9V120ZM200.7 120.9L202 120.7L204.1 124.4H202.6L200.7 120.9Z" fill="#013EF2"/>
<path d="M198.6 127.6H199.9V135.4H198.6V127.6ZM199.2 127.6H203.8V128.8H199.2V127.6ZM199.2 130.9H203.2V132.1H199.2V130.9ZM199.2 134.2H203.8V135.4H199.2V134.2Z" fill="#013EF2"/>
<path d="M198.2 138.6H199.5V146.4H198.2V138.6ZM198.9 141.9H203.3V143.1H198.9V141.9ZM202.5 138.6H203.8V146.4H202.5V138.6Z" fill="#013EF2"/>
<path d="M200.5 149.6H201.4L204.3 157.4H203L201 151.6L199 157.4H197.6L200.5 149.6ZM199 154.7H203.1V155.9H199V154.7Z" fill="#013EF2"/>
<path d="M198.4 160.6H199.7V168.4H198.4V160.6ZM199 167.2H201.3C201.7 167.2 202.1 167.1 202.3 166.9C202.5 166.7 202.6 166.4 202.6 166.1C202.6 165.9 202.6 165.7 202.5 165.5C202.4 165.3 202.3 165.2 202.1 165.1C201.9 165 201.7 165 201.4 165H199V163.8H201.4C201.8 163.8 202 163.7 202.2 163.5C202.4 163.3 202.5 163.1 202.5 162.8C202.5 162.5 202.4 162.2 202.2 162.1C202 161.9 201.7 161.8 201.3 161.8H199V160.6H201.5C202 160.6 202.4 160.7 202.8 160.9C203.2 161.1 203.4 161.3 203.6 161.6C203.8 161.9 203.9 162.3 203.9 162.7C203.9 163 203.8 163.2 203.7 163.5C203.6 163.7 203.4 163.9 203.2 164.1C203 164.3 202.7 164.4 202.4 164.4C202.7 164.4 203 164.6 203.2 164.7C203.4 164.8 203.6 165.1 203.7 165.4C203.8 165.7 203.9 166 203.9 166.3C203.9 166.7 203.8 167.1 203.6 167.4C203.4 167.7 203.1 168 202.8 168.1C202.4 168.3 202 168.4 201.5 168.4H199V167.2Z" fill="#013EF2"/>
<path d="M201.7 179.4H200.4V171.6H201.7V179.4Z" fill="#013EF2"/>
<path d="M198.8 182.6H200.1V190.4H198.8V182.6ZM199.4 189.2H203.9V190.4H199.4V189.2Z" fill="#013EF2"/>
<path d="M201.7 201.4H200.4V193.6H201.7V201.4Z" fill="#013EF2"/>
<path d="M198.2 204.6H203.8V205.8H198.2V204.6ZM200.4 205.2H201.7V212.4H200.4V205.2Z" fill="#013EF2"/>
<path d="M200.5 215.6H201.4L204.3 223.4H203L201 217.6L199 223.4H197.6L200.5 215.6ZM199 220.7H203.1V221.9H199V220.7Z" fill="#013EF2"/>
<path d="M200.3 234.5C200.3 234.5 200.1 234.4 199.7 234.1C199.3 233.9 199 233.5 198.7 233.1C198.5 232.7 198.4 232.1 198.4 231.5V229.4C198.4 228.8 198.5 228.3 198.7 227.8C198.9 227.4 199.2 227 199.7 226.8C200.1 226.6 200.6 226.4 201.2 226.4C201.7 226.4 202.1 226.5 202.5 226.7C202.9 226.9 203.2 227.2 203.5 227.6C203.8 228 203.9 228.4 204 228.9H202.7C202.6 228.6 202.5 228.4 202.4 228.2C202.3 228 202.1 227.9 201.9 227.8C201.7 227.7 201.5 227.6 201.3 227.6C201 227.6 200.7 227.7 200.5 227.8C200.3 227.9 200.1 228.1 200 228.4C199.9 228.6 199.8 228.9 199.8 229.3V231.4C199.8 231.7 199.9 232 200 232.3C200.1 232.5 200.3 232.7 200.5 232.9C200.7 233 201 233.1 201.3 233.1C201.5 233.1 201.7 233.1 201.9 233C202.1 232.9 202.3 232.8 202.4 232.6C202.5 232.4 202.6 232.2 202.7 231.9H204C203.9 232.4 203.7 232.9 203.5 233.2C203.2 233.6 202.9 233.9 202.5 234.1C202.1 234.3 201.7 234.4 201.2 234.4C200.6 234.5 200.3 234.5 200.3 234.5Z" fill="#013EF2"/>
<path d="M201.7 245.4H200.4V237.6H201.7V245.4Z" fill="#013EF2"/>
<path d="M199.5 256.1C199.1 255.9 198.7 255.5 198.5 255.1C198.3 254.7 198.2 254.2 198.2 253.6V251.4C198.2 250.8 198.3 250.3 198.5 249.9C198.7 249.5 199.1 249.1 199.5 248.9C199.9 248.7 200.4 248.5 201 248.5C201.6 248.5 202 248.6 202.5 248.9C202.9 249.1 203.3 249.5 203.5 249.9C203.7 250.3 203.8 250.8 203.8 251.4V253.6C203.8 254.2 203.7 254.7 203.5 255.1C203.3 255.5 202.9 255.9 202.5 256.1C202.1 256.3 201.6 256.5 201 256.5C200.4 256.5 200 256.4 199.5 256.1ZM201.8 255C202 254.9 202.2 254.7 202.3 254.4C202.4 254.2 202.5 253.9 202.5 253.6V251.3C202.5 251 202.4 250.7 202.3 250.5C202.2 250.3 202 250.1 201.8 249.9C201.6 249.8 201.3 249.7 201 249.7C200.7 249.7 200.4 249.8 200.2 249.9C200 250 199.8 250.2 199.7 250.5C199.6 250.7 199.5 251 199.5 251.3V253.6C199.5 253.9 199.6 254.2 199.7 254.4C199.8 254.6 200 254.8 200.2 255C200.4 255.1 200.7 255.2 201 255.2C201.3 255.2 201.6 255.1 201.8 255ZM200.4 247.3L201.9 246L202.7 246.9L201.1 248.1L200.4 247.3Z" fill="#013EF2"/>
<path d="M198.1 259.6H199.5L202.9 265.6L202.8 265.7V259.6H204V267.4H202.6L199.2 261.5L199.3 261.4V267.5H198.1V259.6Z" fill="#013EF2"/>
<path d="M219.7 125.7L218.3 126.1L216 117.9L217.4 117.5L219.7 125.7Z" fill="#013EF2"/>
<path d="M216.9 130.2L218.4 129.8L223.7 135.1L223.6 135.3L221.8 128.8L223.1 128.4L225.4 136.6L223.9 137L218.6 131.8L218.7 131.6L220.5 138L219.2 138.4L216.9 130.2Z" fill="#013EF2"/>
<path d="M224.9 149.3C224.9 149.3 224.6 149.2 224.1 149.1C223.6 149 223.2 148.7 222.8 148.3C222.4 147.9 222.2 147.4 222 146.8L221.4 144.6C221.2 144 221.2 143.4 221.3 142.9C221.4 142.4 221.6 141.9 222 141.6C222.4 141.2 222.8 141 223.4 140.8C223.9 140.7 224.4 140.6 224.8 140.7C225.3 140.8 225.7 141 226.1 141.3C226.5 141.6 226.8 142 227 142.6L225.6 143C225.5 142.8 225.3 142.6 225.1 142.4C224.9 142.2 224.7 142.1 224.4 142.1C224.1 142.1 223.9 142.1 223.7 142.1C223.4 142.2 223.1 142.3 223 142.5C222.8 142.7 222.7 143 222.6 143.3C222.6 143.6 222.6 143.9 222.7 144.3L223.3 146.5C223.4 146.9 223.5 147.1 223.7 147.4C223.9 147.6 224.1 147.8 224.4 147.8C224.7 147.9 225 147.9 225.3 147.8C225.5 147.7 225.7 147.6 225.9 147.5C226.1 147.3 226.2 147.1 226.3 146.9C226.4 146.7 226.4 146.4 226.4 146.1L227.8 145.7C227.9 146.3 227.8 146.8 227.7 147.3C227.5 147.8 227.3 148.2 227 148.5C226.7 148.8 226.2 149.1 225.8 149.2C225.2 149.2 224.9 149.3 224.9 149.3Z" fill="#013EF2"/>
<path d="M224.2 153L225.5 152.6L227.8 160.8L226.5 161.2L224.2 153ZM226.8 159.8L231.5 158.4L231.9 159.7L227.2 161.1L226.8 159.8Z" fill="#013EF2"/>
<path d="M230.5 172.3C230 172.2 229.6 171.9 229.2 171.5C228.8 171.1 228.6 170.6 228.4 169.9L226.9 164.7L228.2 164.3L229.7 169.6C229.9 170.1 230.1 170.5 230.5 170.7C230.9 170.9 231.3 171 231.8 170.8C232.3 170.7 232.7 170.4 232.9 170C233.1 169.6 233.1 169.2 233 168.6L231.5 163.3L232.8 162.9L234.3 168.1C234.5 168.7 234.5 169.3 234.4 169.8C234.3 170.3 234.1 170.8 233.7 171.1C233.3 171.5 232.8 171.7 232.2 171.9C231.6 172.4 231 172.4 230.5 172.3Z" fill="#013EF2"/>
<path d="M234.8 183.9C234.8 183.9 234.6 183.9 234.2 183.9C233.8 183.9 233.4 183.9 233.1 183.8C232.8 183.7 232.4 183.6 232.1 183.5L232.5 182.2C232.9 182.4 233.3 182.5 233.7 182.5C234.1 182.5 234.6 182.5 235 182.4C235.5 182.2 235.9 182 236.2 181.7C236.5 181.4 236.5 181.1 236.4 180.7C236.3 180.4 236.2 180.3 236 180.2C235.8 180.1 235.6 180 235.4 180C235.2 180 234.9 180 234.5 180H234.4C233.8 180.1 233.3 180.1 233 180.1C232.6 180.1 232.2 179.9 231.9 179.7C231.6 179.5 231.3 179 231.1 178.4C231 177.9 230.9 177.4 231.1 177C231.2 176.6 231.5 176.2 231.9 175.9C232.3 175.6 232.8 175.3 233.4 175.2C233.7 175.1 234 175.1 234.3 175C234.6 175 234.9 175 235.2 175C235.5 175 235.8 175.1 236.2 175.2L235.9 176.5C235.5 176.4 235.2 176.3 234.8 176.3C234.4 176.3 234.1 176.3 233.8 176.4C233.3 176.5 232.9 176.8 232.7 177C232.5 177.2 232.4 177.6 232.5 177.9C232.6 178.2 232.7 178.3 232.9 178.5C233.1 178.7 233.3 178.7 233.5 178.7C233.7 178.7 234.1 178.7 234.5 178.7C234.5 178.7 234.5 178.7 234.6 178.7C234.6 178.7 234.6 178.7 234.7 178.7C235.2 178.7 235.7 178.7 236.1 178.7C236.5 178.7 236.8 178.9 237.1 179.1C237.4 179.4 237.7 179.7 237.8 180.3C237.9 180.8 238 181.3 237.8 181.7C237.7 182.1 237.4 182.5 237 182.8C236.6 183.1 236.1 183.4 235.4 183.6C235 183.9 234.8 183.9 234.8 183.9Z" fill="#013EF2"/>
<path d="M239.4 195L238 195.4L235.7 187.2L237.1 186.8L239.4 195Z" fill="#013EF2"/>
<path d="M240.4 206.9C239.9 206.8 239.4 206.5 239.1 206.1C238.7 205.7 238.5 205.2 238.3 204.6L237.6 202.3C237.4 201.7 237.4 201.1 237.5 200.6C237.6 200.1 237.9 199.6 238.2 199.2C238.6 198.8 239 198.6 239.6 198.4C240.2 198.2 240.7 198.2 241.2 198.3C241.7 198.4 242.2 198.7 242.5 199.1C242.8 199.5 243.1 200 243.3 200.6L244 202.9C244.2 203.5 244.2 204.1 244.1 204.6C244 205.1 243.7 205.6 243.4 206C243 206.4 242.6 206.6 242 206.8C241.5 207 240.9 207 240.4 206.9ZM238.7 197.4L239.9 195.6L241 196.3L239.7 198L238.7 197.4ZM242.4 205C242.6 204.8 242.7 204.6 242.8 204.3C242.9 204 242.8 203.7 242.7 203.4L242 201C241.9 200.7 241.8 200.4 241.6 200.2C241.4 200 241.2 199.8 240.9 199.8C240.6 199.8 240.3 199.7 240 199.8C239.7 199.9 239.4 200 239.2 200.2C239 200.4 238.9 200.6 238.8 200.9C238.7 201.2 238.8 201.5 238.9 201.8L239.6 204.2C239.7 204.5 239.8 204.8 240 205C240.2 205.2 240.4 205.4 240.7 205.4C241 205.5 241.3 205.5 241.6 205.4C242 205.4 242.2 205.2 242.4 205Z" fill="#013EF2"/>
<path d="M239.9 210.9L241.4 210.5L246.7 215.8L246.6 216L244.8 209.5L246.1 209.1L248.4 217.3L246.9 217.7L241.6 212.5L241.7 212.3L243.5 218.7L242.2 219.1L239.9 210.9Z" fill="#013EF2"/>
<path d="M154.004 413.578H142.09L139.414 421H135.547L146.406 392.562H149.688L160.566 421H156.719L154.004 413.578ZM143.223 410.492H152.891L148.047 397.191L143.223 410.492ZM185.078 411.977C184.727 414.984 183.613 417.309 181.738 418.949C179.876 420.577 177.396 421.391 174.297 421.391C170.938 421.391 168.242 420.186 166.211 417.777C164.193 415.368 163.184 412.146 163.184 408.109V405.375C163.184 402.732 163.652 400.408 164.59 398.402C165.54 396.397 166.882 394.861 168.613 393.793C170.345 392.712 172.35 392.172 174.629 392.172C177.65 392.172 180.072 393.018 181.895 394.711C183.717 396.391 184.779 398.721 185.078 401.703H181.309C180.983 399.438 180.273 397.797 179.18 396.781C178.099 395.766 176.582 395.258 174.629 395.258C172.233 395.258 170.352 396.143 168.984 397.914C167.63 399.685 166.953 402.204 166.953 405.473V408.227C166.953 411.312 167.598 413.767 168.887 415.59C170.176 417.413 171.979 418.324 174.297 418.324C176.38 418.324 177.975 417.855 179.082 416.918C180.202 415.967 180.944 414.32 181.309 411.977H185.078ZM205.918 413.578H194.004L191.328 421H187.461L198.32 392.562H201.602L212.48 421H208.633L205.918 413.578ZM195.137 410.492H204.805L199.961 397.191L195.137 410.492ZM236.992 411.977C236.641 414.984 235.527 417.309 233.652 418.949C231.79 420.577 229.31 421.391 226.211 421.391C222.852 421.391 220.156 420.186 218.125 417.777C216.107 415.368 215.098 412.146 215.098 408.109V405.375C215.098 402.732 215.566 400.408 216.504 398.402C217.454 396.397 218.796 394.861 220.527 393.793C222.259 392.712 224.264 392.172 226.543 392.172C229.564 392.172 231.986 393.018 233.809 394.711C235.632 396.391 236.693 398.721 236.992 401.703H233.223C232.897 399.438 232.188 397.797 231.094 396.781C230.013 395.766 228.496 395.258 226.543 395.258C224.147 395.258 222.266 396.143 220.898 397.914C219.544 399.685 218.867 402.204 218.867 405.473V408.227C218.867 411.312 219.512 413.767 220.801 415.59C222.09 417.413 223.893 418.324 226.211 418.324C228.294 418.324 229.889 417.855 230.996 416.918C232.116 415.967 232.858 414.32 233.223 411.977H236.992ZM246.152 421H242.402V392.562H246.152V421ZM274.023 417.27C273.06 418.65 271.712 419.685 269.98 420.375C268.262 421.052 266.257 421.391 263.965 421.391C261.647 421.391 259.59 420.85 257.793 419.77C255.996 418.676 254.603 417.126 253.613 415.121C252.637 413.116 252.135 410.792 252.109 408.148V405.668C252.109 401.384 253.105 398.064 255.098 395.707C257.103 393.35 259.915 392.172 263.535 392.172C266.504 392.172 268.893 392.934 270.703 394.457C272.513 395.967 273.62 398.116 274.023 400.902H270.273C269.57 397.139 267.331 395.258 263.555 395.258C261.042 395.258 259.134 396.143 257.832 397.914C256.543 399.672 255.892 402.224 255.879 405.57V407.895C255.879 411.085 256.608 413.624 258.066 415.512C259.525 417.387 261.497 418.324 263.984 418.324C265.391 418.324 266.621 418.168 267.676 417.855C268.73 417.543 269.603 417.016 270.293 416.273V409.887H263.711V406.84H274.023V417.27Z" fill="#013EF2"/>
</g>
<defs>
<clipPath id="clip0">
<rect width="363" height="460" fill="white"/>
</clipPath>
</defs>
</svg>
